<svg viewBox="0 0 1000 600" xmlns="http://www.w3.org/2000/svg">
  <!-- Background with gradient -->
  <defs>
    <linearGradient id="bgGradient" x1="0%" y1="0%" x2="100%" y2="100%">
      <stop offset="0%" stop-color="#f5f7fa" />
      <stop offset="100%" stop-color="#e4e7eb" />
    </linearGradient>
    <linearGradient id="headerGradient" x1="0%" y1="0%" x2="100%" y2="0%">
      <stop offset="0%" stop-color="#3f51b5" />
      <stop offset="100%" stop-color="#303f9f" />
    </linearGradient>
    <linearGradient id="chartGradient" x1="0%" y1="0%" x2="0%" y2="100%">
      <stop offset="0%" stop-color="#ff4081" stop-opacity="0.7" />
      <stop offset="100%" stop-color="#ff4081" stop-opacity="0.1" />
    </linearGradient>
    <linearGradient id="barGradient" x1="0%" y1="0%" x2="0%" y2="100%">
      <stop offset="0%" stop-color="#3f51b5" />
      <stop offset="100%" stop-color="#5c6bc0" />
    </linearGradient>
    <filter id="shadow" x="-20%" y="-20%" width="140%" height="140%">
      <feDropShadow dx="0" dy="10" stdDeviation="15" flood-color="#000000" flood-opacity="0.15"/>
    </filter>
  </defs>
  
  <!-- Main Dashboard Container -->
  <rect x="50" y="50" width="900" height="500" rx="10" ry="10" fill="#ffffff" filter="url(#shadow)" />
  
  <!-- Dashboard Header -->
  <rect x="50" y="50" width="900" height="60" rx="10" ry="10" fill="url(#headerGradient)" />
  <text x="80" y="88" font-family="Arial, sans-serif" font-size="22" font-weight="bold" fill="#ffffff">BreakfastTrack Dashboard</text>
  
  <!-- Top Stats Section -->
  <g id="statsBoxes">
    <!-- Total Guests Box -->
    <rect x="80" y="130" width="200" height="100" rx="5" ry="5" fill="#ffffff" stroke="#e0e0e0" stroke-width="1" />
    <text x="100" y="160" font-family="Arial, sans-serif" font-size="16" fill="#5d6778">Total Guests</text>
    <text x="100" y="200" font-family="Arial, sans-serif" font-size="32" font-weight="bold" fill="#2c3e50">187</text>
    
    <!-- Breakfast Attendees Box -->
    <rect x="300" y="130" width="200" height="100" rx="5" ry="5" fill="#ffffff" stroke="#e0e0e0" stroke-width="1" />
    <text x="320" y="160" font-family="Arial, sans-serif" font-size="16" fill="#5d6778">Breakfast Today</text>
    <text x="320" y="200" font-family="Arial, sans-serif" font-size="32" font-weight="bold" fill="#2c3e50">142</text>
    
    <!-- Attendance Rate Box -->
    <rect x="520" y="130" width="200" height="100" rx="5" ry="5" fill="#ffffff" stroke="#e0e0e0" stroke-width="1" />
    <text x="540" y="160" font-family="Arial, sans-serif" font-size="16" fill="#5d6778">Attendance Rate</text>
    <text x="540" y="200" font-family="Arial, sans-serif" font-size="32" font-weight="bold" fill="#4caf50">76%</text>
    
    <!-- Current Status Box -->
    <rect x="740" y="130" width="200" height="100" rx="5" ry="5" fill="#ffffff" stroke="#e0e0e0" stroke-width="1" />
    <text x="760" y="160" font-family="Arial, sans-serif" font-size="16" fill="#5d6778">Current Status</text>
    <text x="760" y="200" font-family="Arial, sans-serif" font-size="20" font-weight="bold" fill="#ff4081">Peak Time</text>
  </g>
  
  <!-- Main Chart Area -->
  <rect x="80" y="250" width="520" height="270" rx="5" ry="5" fill="#ffffff" stroke="#e0e0e0" stroke-width="1" />
  <text x="100" y="280" font-family="Arial, sans-serif" font-size="18" font-weight="bold" fill="#2c3e50">Breakfast Attendance Trend</text>
  
  <!-- Chart Grid Lines -->
  <g id="chartGrid" stroke="#e0e0e0" stroke-width="1">
    <line x1="100" y1="480" x2="560" y2="480" />
    <line x1="100" y1="430" x2="560" y2="430" />
    <line x1="100" y1="380" x2="560" y2="380" />
    <line x1="100" y1="330" x2="560" y2="330" />
  </g>
  
  <!-- Chart Y-Axis Labels -->
  <text x="80" y="480" font-family="Arial, sans-serif" font-size="12" fill="#5d6778" text-anchor="end">0</text>
  <text x="80" y="430" font-family="Arial, sans-serif" font-size="12" fill="#5d6778" text-anchor="end">50</text>
  <text x="80" y="380" font-family="Arial, sans-serif" font-size="12" fill="#5d6778" text-anchor="end">100</text>
  <text x="80" y="330" font-family="Arial, sans-serif" font-size="12" fill="#5d6778" text-anchor="end">150</text>
  
  <!-- Chart X-Axis Labels -->
  <text x="130" y="500" font-family="Arial, sans-serif" font-size="12" fill="#5d6778" text-anchor="middle">6:00</text>
  <text x="210" y="500" font-family="Arial, sans-serif" font-size="12" fill="#5d6778" text-anchor="middle">7:00</text>
  <text x="290" y="500" font-family="Arial, sans-serif" font-size="12" fill="#5d6778" text-anchor="middle">8:00</text>
  <text x="370" y="500" font-family="Arial, sans-serif" font-size="12" fill="#5d6778" text-anchor="middle">9:00</text>
  <text x="450" y="500" font-family="Arial, sans-serif" font-size="12" fill="#5d6778" text-anchor="middle">10:00</text>
  <text x="530" y="500" font-family="Arial, sans-serif" font-size="12" fill="#5d6778" text-anchor="middle">11:00</text>
  
  <!-- Chart Data Line -->
  <polyline points="130,470 210,420 290,355 330,310 370,330 450,390 530,460" 
            fill="none" stroke="#ff4081" stroke-width="3" />
  
  <!-- Chart Area Fill -->
  <path d="M130,470 210,420 290,355 330,310 370,330 450,390 530,460 530,480 130,480 Z" 
        fill="url(#chartGradient)" stroke="none" />
  
  <!-- Chart Data Points -->
  <circle cx="130" cy="470" r="5" fill="#ff4081" />
  <circle cx="210" cy="420" r="5" fill="#ff4081" />
  <circle cx="290" cy="355" r="5" fill="#ff4081" />
  <circle cx="330" cy="310" r="5" fill="#ff4081" />
  <circle cx="370" cy="330" r="5" fill="#ff4081" />
  <circle cx="450" cy="390" r="5" fill="#ff4081" />
  <circle cx="530" cy="460" r="5" fill="#ff4081" />
  
  <!-- Highlight Current Time -->
  <line x1="330" y1="300" x2="330" y2="480" stroke="#ff4081" stroke-width="1" stroke-dasharray="4" />
  <circle cx="330" cy="310" r="7" fill="#ff4081" stroke="#ffffff" stroke-width="2" />
  
  <!-- Guest List Panel -->
  <rect x="620" y="250" width="320" height="270" rx="5" ry="5" fill="#ffffff" stroke="#e0e0e0" stroke-width="1" />
  <text x="640" y="280" font-family="Arial, sans-serif" font-size="18" font-weight="bold" fill="#2c3e50">Recent Check-ins</text>
  
  <!-- Guest List Items -->
  <g id="guestList">
    <!-- Guest 1 -->
    <rect x="640" y="300" width="280" height="40" rx="4" ry="4" fill="#f5f7fa" />
    <circle cx="660" cy="320" r="12" fill="#3f51b5" />
    <text x="660" y="324" font-family="Arial, sans-serif" font-size="12" fill="#ffffff" text-anchor="middle">JD</text>
    <text x="685" y="315" font-family="Arial, sans-serif" font-size="14" fill="#2c3e50">John Doe</text>
    <text x="685" y="333" font-family="Arial, sans-serif" font-size="12" fill="#5d6778">Room 304 • 8:40 AM</text>
    <circle cx="905" cy="320" r="10" fill="#4caf50" />
    <text x="905" y="324" font-family="Arial, sans-serif" font-size="14" fill="#ffffff" text-anchor="middle">✓</text>
    
    <!-- Guest 2 -->
    <rect x="640" y="350" width="280" height="40" rx="4" ry="4" fill="#ffffff" />
    <circle cx="660" cy="370" r="12" fill="#9c27b0" />
    <text x="660" y="374" font-family="Arial, sans-serif" font-size="12" fill="#ffffff" text-anchor="middle">AS</text>
    <text x="685" y="365" font-family="Arial, sans-serif" font-size="14" fill="#2c3e50">Anna Smith</text>
    <text x="685" y="383" font-family="Arial, sans-serif" font-size="12" fill="#5d6778">Room 215 • 8:35 AM</text>
    <circle cx="905" cy="370" r="10" fill="#4caf50" />
    <text x="905" y="374" font-family="Arial, sans-serif" font-size="14" fill="#ffffff" text-anchor="middle">✓</text>
    
    <!-- Guest 3 -->
    <rect x="640" y="400" width="280" height="40" rx="4" ry="4" fill="#ffffff" />
    <circle cx="660" cy="420" r="12" fill="#ff9800" />
    <text x="660" y="424" font-family="Arial, sans-serif" font-size="12" fill="#ffffff" text-anchor="middle">RJ</text>
    <text x="685" y="415" font-family="Arial, sans-serif" font-size="14" fill="#2c3e50">Robert Johnson</text>
    <text x="685" y="433" font-family="Arial, sans-serif" font-size="12" fill="#5d6778">Room 118 • 8:32 AM</text>
    <circle cx="905" cy="420" r="10" fill="#4caf50" />
    <text x="905" y="424" font-family="Arial, sans-serif" font-size="14" fill="#ffffff" text-anchor="middle">✓</text>
    
    <!-- Guest 4 -->
    <rect x="640" y="450" width="280" height="40" rx="4" ry="4" fill="#ffffff" />
    <circle cx="660" cy="470" r="12" fill="#009688" />
    <text x="660" y="474" font-family="Arial, sans-serif" font-size="12" fill="#ffffff" text-anchor="middle">ML</text>
    <text x="685" y="465" font-family="Arial, sans-serif" font-size="14" fill="#2c3e50">Maria Lopez</text>
    <text x="685" y="483" font-family="Arial, sans-serif" font-size="12" fill="#5d6778">Room 401 • 8:29 AM</text>
    <circle cx="905" cy="470" r="10" fill="#4caf50" />
    <text x="905" y="474" font-family="Arial, sans-serif" font-size="14" fill="#ffffff" text-anchor="middle">✓</text>
  </g>
  
  <!-- Bottom Status Bar -->
  <rect x="50" y="540" width="900" height="10" rx="5" ry="5" fill="#f5f7fa" />
  <rect x="50" y="540" width="760" height="10" rx="5" ry="5" fill="#4caf50" />
  
  <!-- Notification Badge -->
  <circle cx="880" cy="80" r="15" fill="#ff4081" />
  <text x="880" y="85" font-family="Arial, sans-serif" font-size="14" font-weight="bold" fill="#ffffff" text-anchor="middle">3</text>
  
  <!-- User Avatar -->
  <circle cx="920" cy="80" r="15" fill="#e0e0e0" />
  <text x="920" y="85" font-family="Arial, sans-serif" font-size="14" fill="#5d6778" text-anchor="middle">M</text>
  
  <!-- Dashboard Reflection -->
  <rect x="50" y="550" width="900" height="20" rx="0" ry="0" fill="url(#bgGradient)" opacity="0.3" />
  
  <!-- Highlight Elements (Gamification) -->
  <g id="gamificationElements">
    <!-- Achievement Badge -->
    <circle cx="850" cy="500" r="30" fill="#ff9800" opacity="0.9" filter="url(#shadow)" />
    <text x="850" y="508" font-family="Arial, sans-serif" font-size="24" fill="#ffffff" text-anchor="middle">★</text>
    
    <!-- Level Progress -->
    <rect x="640" y="510" width="180" height="10" rx="5" ry="5" fill="#e0e0e0" />
    <rect x="640" y="510" width="120" height="10" rx="5" ry="5" fill="#ff4081" />
    <text x="640" y="535" font-family="Arial, sans-serif" font-size="12" fill="#5d6778">Level Progress: 67%</text>
  </g>
</svg>